<svg xmlns="http://www.w3.org/2000/svg" width="625" height="625" viewBox="0 0 500 500"><path fill="#503d4e" d="m324.04,8.04c15.35,7.29 30.52,14.99 45.86,22.32-17.3468,37.666-33.6688,73.6553-51.39,106.74-12.87-12.92-25.8-26.98-38.72-39.85 14.78-29.72 29.28-59.59 44.25-89.21z"/><path fill="#010101" d="m249.35,66.36c62.838,63.9689 110.3574,110.2979 180.94,180.72-59.5,60.7421-125.4317,126.8204-177.05,179.15-34.0565-31.3506-34.0988-31.3369-54.28-49.46 6.16-12.35 11.99-24.87 18.44-37.08 10.88,10.81 21.63,21.76 32.63,32.45 42.0125-45.7313 85.1243-80.7187 123.8-124.45-.09-.3-.29-.9-.39-1.2-42.5088-42.7525.39,1.2-124.38-123.58-41.4,41.42-82.68,82.96-124.06,124.4 17.58,18.31 35.99,35.83 53.75,53.98-5.75,12.53-12.11,24.77-18.32,37.08-30.49-30.15-60.8-60.48-91.25-90.67 60.8898-63.3966 124.9769-123.9032 180.17-181.34z"/><path fill="#503d4e" d="m261.19,134.85c13.18,12.88 25.96,26.18 39.3,38.89-30.1843,54.9244-59.0587,117.0175-83.09,165.95-6.45,12.21-12.28,24.73-18.44,37.08-19.05,38.43-37.92,76.95-57.11,115.3-15.39-7.18-30.5-14.98-45.83-22.3 .15-.54.44-1.63.58-2.17 21.23-43.1 42.71-86.08 63.83-129.23 6.21-12.31 12.57-24.55 18.32-37.08 27.66-55.39 54.92-110.98 82.44-166.44z"/></svg>